<?xml version="1.0" standalone="no"?><!DOCTYPE svg PUBLIC "-//W3C//DTD SVG 1.1//EN" "http://www.w3.org/Graphics/SVG/1.1/DTD/svg11.dtd"><svg t="1576046508318" class="icon" viewBox="0 0 1127 1024" version="1.1" xmlns="http://www.w3.org/2000/svg" p-id="14731" xmlns:xlink="http://www.w3.org/1999/xlink" width="140.875" height="128"><defs><style type="text/css"></style></defs><path d="M500.246772 114.321909h627.518997v87.060949h-627.518997zM0 114.321909h260.461874v87.060949H0z" p-id="14732"></path><path d="M507.347681 315.704766h-333.280196V0h333.280196z m-246.219247-87.060949h159.158297V87.060949h-159.158297zM500.246772 822.617142h627.518997v87.060949h-627.518997zM0 822.617142h260.461874v87.060949H0z" p-id="14733"></path><path d="M507.347681 1024h-333.280196V708.295234h333.280196z m-246.219247-87.060949h159.158297V795.356183h-159.158297zM0 469.462564h627.518997v87.060949H0zM867.290292 469.462564h260.461873v87.060949H867.290292z" p-id="14734"></path><path d="M953.739093 670.845422H620.377278V355.140656h333.361815z m-246.300866-87.060949h159.239917V442.201605H707.438227z" p-id="14735"></path></svg>