<?xml version="1.0" standalone="no"?><!DOCTYPE svg PUBLIC "-//W3C//DTD SVG 1.1//EN" "http://www.w3.org/Graphics/SVG/1.1/DTD/svg11.dtd"><svg t="1575440598679" class="icon" viewBox="0 0 1024 1024" version="1.1" xmlns="http://www.w3.org/2000/svg" p-id="873" xmlns:xlink="http://www.w3.org/1999/xlink" width="200" height="200"><defs><style type="text/css"></style></defs><path d="M870.4 616.96V512c0-15.36-12.8-25.6-25.6-25.6H537.6v-102.4h179.2c15.36 0 25.6-10.24 25.6-25.6V128c0-15.36-10.24-25.6-25.6-25.6H307.2c-15.36 0-25.6 10.24-25.6 25.6v230.4c0 15.36 10.24 25.6 25.6 25.6h179.2v102.4H179.2c-12.8 0-25.6 10.24-25.6 25.6v104.96c-58.88 12.8-102.4 64-102.4 125.44 0 71.68 56.32 128 128 128s128-56.32 128-128c0-61.44-43.52-112.64-102.4-125.44V537.6h281.6v130.56c-58.88 12.8-102.4 64-102.4 125.44 0 71.68 56.32 128 128 128s128-56.32 128-128c0-61.44-43.52-112.64-102.4-125.44V537.6h281.6v79.36c-58.88 12.8-102.4 64-102.4 125.44 0 71.68 56.32 128 128 128s128-56.32 128-128c0-61.44-43.52-112.64-102.4-125.44zM332.8 153.6h358.4v179.2H332.8V153.6z m-76.8 588.8c0 40.96-33.28 76.8-76.8 76.8s-76.8-35.84-76.8-76.8c0-33.28 20.48-61.44 51.2-71.68 5.12-2.56 7.68-2.56 12.8-2.56h25.6c5.12 0 7.68 2.56 12.8 2.56 30.72 10.24 51.2 38.4 51.2 71.68z m332.8 51.2c0 40.96-33.28 76.8-76.8 76.8s-76.8-35.84-76.8-76.8c0-43.52 33.28-76.8 76.8-76.8s76.8 33.28 76.8 76.8z m256 25.6c-43.52 0-76.8-35.84-76.8-76.8 0-33.28 20.48-61.44 51.2-71.68h51.2c30.72 10.24 51.2 38.4 51.2 71.68 0 40.96-33.28 76.8-76.8 76.8z" p-id="874"></path></svg>