<?xml version="1.0" standalone="no"?><!DOCTYPE svg PUBLIC "-//W3C//DTD SVG 1.1//EN" "http://www.w3.org/Graphics/SVG/1.1/DTD/svg11.dtd"><svg t="1576046410608" class="icon" viewBox="0 0 1024 1024" version="1.1" xmlns="http://www.w3.org/2000/svg" p-id="14223" xmlns:xlink="http://www.w3.org/1999/xlink" width="128" height="128"><defs><style type="text/css"></style></defs><path d="M960.3232 933.072H750.19306667c-15.088 0-27.31733333-12.2304-27.31733334-27.31946667V316.40213333c0-4.45226667 1.088-8.83733333 3.168-12.77333333l105.06666667-198.63786667a27.3184 27.3184 0 0 1 48.29653333 0l105.06666667 198.63786667a27.3184 27.3184 0 0 1 3.16906667 12.77333333v589.34933334c0 15.09013333-12.2304 27.32053333-27.31946667 27.32053333zM777.51253333 878.432h155.49226667V323.18186667l-77.7472-146.98773334-77.74613333 146.98773334v555.2512z" p-id="14224"></path><path d="M855.2576 376.4768c-2.74133333 0-5.48266667-0.41173333-8.1312-1.23733333l-105.06453333-32.7552c-14.40426667-4.49066667-22.44266667-19.808-17.95093334-34.21226667 4.49173333-14.4064 19.80906667-22.4448 34.21333334-17.94986667l96.9344 30.2208 96.9344-30.2208c14.40213333-4.49066667 29.7216 3.5456 34.21333333 17.94986667s-3.54666667 29.7216-17.94986667 34.21226667l-105.06666666 32.7552a27.34293333 27.34293333 0 0 1-8.13226667 1.23733333zM960.3232 815.2064H750.19306667c-15.088 0-27.31733333-12.2304-27.31733334-27.3184s12.22933333-27.31946667 27.31733334-27.31946667h210.1312c15.088 0 27.3184 12.23146667 27.3184 27.31946667s-12.2304 27.3184-27.31946667 27.3184zM642.94186667 933.072H65.08373333c-15.088 0-27.3184-12.2304-27.3184-27.31946667v-787.98933333c0-15.088 12.23146667-27.3184 27.3184-27.3184h577.85813334c15.08906667 0 27.31946667 12.23146667 27.31946666 27.3184v787.98933333c0 15.08906667-12.2304 27.31946667-27.31946666 27.31946667z m-550.53866667-54.63893333h523.2192V145.08373333H92.40213333V878.432z" p-id="14225"></path><path d="M537.8784 470.4928h-364.01066667c-15.088 0-27.31946667-12.23146667-27.31946666-27.31946667s12.23253333-27.31733333 27.31946666-27.31733333h364.01066667c15.088 0 27.3184 12.2304 27.3184 27.31733333s-12.2304 27.31946667-27.31733333 27.31946667zM537.8784 335.50826667h-364.01066667c-15.088 0-27.31946667-12.23253333-27.31946666-27.31946667s12.23253333-27.3184 27.31946666-27.3184h364.01066667c15.088 0 27.3184 12.23146667 27.3184 27.3184s-12.2304 27.31946667-27.31733333 27.31946667zM537.8784 605.4784h-364.01066667c-15.088 0-27.31946667-12.2304-27.31946666-27.3184s12.23253333-27.31946667 27.31946666-27.31946667h364.01066667c15.088 0 27.3184 12.2304 27.3184 27.31946667s-12.2304 27.31733333-27.31733333 27.31733333zM537.8784 740.464h-364.01066667c-15.088 0-27.31946667-12.2304-27.31946666-27.3184s12.23253333-27.3184 27.31946666-27.3184h364.01066667c15.088 0 27.3184 12.2304 27.3184 27.31733333s-12.2304 27.31946667-27.31733333 27.31946667z" p-id="14226"></path></svg>