<?xml version="1.0" standalone="no"?><!DOCTYPE svg PUBLIC "-//W3C//DTD SVG 1.1//EN" "http://www.w3.org/Graphics/SVG/1.1/DTD/svg11.dtd"><svg t="1575439645160" class="icon" viewBox="0 0 1024 1024" version="1.1" xmlns="http://www.w3.org/2000/svg" p-id="1362" xmlns:xlink="http://www.w3.org/1999/xlink" width="200" height="200"><defs><style type="text/css"></style></defs><path d="M252.8 591.3h182.1c31.1 0 52.1 21 52.1 52v232.8c0 31-31.1 52-62.2 52H200.7c-31.1 0-51.2-21-51.2-52V643.3c0-31 21-52 52.1-52h51.2z m389.8 0h233.3c31.1 0 52.1 26.5 52.1 57.5v223.7c0 31-24.7 55.7-55.8 55.7H648.1c-31.1 0-57.6-21-57.6-52V643.3c0-31 26.5-51.1 57.6-51.1l-5.5-0.9z m0-440.1h233.3c31.1 0 52.1 18.3 52.1 49.3v234.7c0 31-21 52-52.1 52H642.6c-31.1 0-52.1-21-52.1-52V202.3c-0.1-31 21-51.1 52.1-51.1zM113.8 273.5L273 114.7c22-21.9 57.6-21.9 79.6 0L510 273.6c22 21.9 22 57.5 0 79.4L351.7 511c-22 21.9-57.6 21.9-79.6 0L113.8 352.1c-21.1-22-21.1-57.6 0-78.6z" fill="" p-id="1363"></path></svg>