<?xml version="1.0" standalone="no"?><!DOCTYPE svg PUBLIC "-//W3C//DTD SVG 1.1//EN" "http://www.w3.org/Graphics/SVG/1.1/DTD/svg11.dtd"><svg t="1575534913333" class="icon" viewBox="0 0 1024 1024" version="1.1" xmlns="http://www.w3.org/2000/svg" p-id="10472" width="128" height="128" xmlns:xlink="http://www.w3.org/1999/xlink"><defs><style type="text/css"></style></defs><path d="M510.8 666.13c-84.8 0-153.8-69-153.8-153.8s69-153.8 153.8-153.8 153.8 69 153.8 153.8-68.99 153.8-153.8 153.8z m0-243.6a89.8 89.8 0 1 0 89.8 89.8 89.91 89.91 0 0 0-89.8-89.8z" fill="#1AD8E2" p-id="10473"></path><path d="M567.31 906.54H449.14a42.78 42.78 0 0 1-42.74-42.74v-36.88a330 330 0 0 1-120.3-70.83L253 775.22a42.78 42.78 0 0 1-58.38-15.65L135.5 657.24a42.79 42.79 0 0 1 15.64-58.38l34.62-20a333.64 333.64 0 0 1 0.7-136.79l-35.32-20.39a42.8 42.8 0 0 1-15.64-58.38L194.59 261A42.79 42.79 0 0 1 253 245.32l35.61 20.56a330.32 330.32 0 0 1 117.79-68.56v-40.58A42.78 42.78 0 0 1 449.14 114h118.17A42.78 42.78 0 0 1 610 156.74v39.07a330.11 330.11 0 0 1 120.63 68.45l32.8-18.93A42.79 42.79 0 0 1 821.86 261l59.08 102.34a42.79 42.79 0 0 1-15.64 58.38l-31.21 18a333.7 333.7 0 0 1 0.71 141.54l30.5 17.61a42.76 42.76 0 0 1 15.64 58.38l-59.08 102.32a42.75 42.75 0 0 1-58.38 15.65l-30.3-17.49A329.58 329.58 0 0 1 610 828.43v35.37a42.78 42.78 0 0 1-42.69 42.74z m-96.91-64H546v-64l24.82-5.72a266.37 266.37 0 0 0 134-76.91l17.36-18.36 54.79 31.63 37.82-65.51L760.05 612l7.11-24.16a269 269 0 0 0-0.83-154.23l-7.47-24.36 56-32.35-37.82-65.51-56.82 32.81-17.37-18a266.5 266.5 0 0 0-132-74.79L546 245.72V178h-75.6v68.41l-24.32 6a266.83 266.83 0 0 0-129.38 75.34L299.34 346l-60-34.62-37.82 65.51 59.78 34.52-7.21 24.22a269.14 269.14 0 0 0-0.84 150.17l6.87 24-58.6 33.83 37.82 65.51 58-33.47 17.36 18.65a266.63 266.63 0 0 0 131.38 77.48l24.32 6z" fill="#2C77E5" p-id="10474"></path></svg>