<?xml version="1.0" standalone="no"?><!DOCTYPE svg PUBLIC "-//W3C//DTD SVG 1.1//EN" "http://www.w3.org/Graphics/SVG/1.1/DTD/svg11.dtd"><svg t="1575535719624" class="icon" viewBox="0 0 1024 1024" version="1.1" xmlns="http://www.w3.org/2000/svg" p-id="12503" xmlns:xlink="http://www.w3.org/1999/xlink" width="128" height="128"><defs><style type="text/css"></style></defs><path d="M506.24 953.6H149.12A83.2 83.2 0 0 1 64 870.4V443.52a83.2 83.2 0 0 1 83.2-82.56h576a82.56 82.56 0 0 1 82.56 82.56v96a32 32 0 0 1-32 32 32.64 32.64 0 0 1-32-32v-96a18.56 18.56 0 0 0-18.56-18.56h-576a18.56 18.56 0 0 0-19.2 18.56v426.88a18.56 18.56 0 0 0 19.2 19.2h359.04a32 32 0 1 1 0 64z" fill="#323333" p-id="12504"></path><path d="M640 419.2a32.64 32.64 0 0 1-32-32V247.68a172.8 172.8 0 0 0-345.6 0v139.52a32.64 32.64 0 0 1-32 32 32 32 0 0 1-32-32V247.68a236.8 236.8 0 0 1 473.6 0v139.52a32 32 0 0 1-32 32z" fill="#323333" p-id="12505"></path><path d="M435.84 622.08m-82.56 0a82.56 82.56 0 1 0 165.12 0 82.56 82.56 0 1 0-165.12 0Z" fill="#323333" p-id="12506"></path><path d="M435.84 803.2a32 32 0 0 1-32-32v-103.04a32 32 0 0 1 32-32 32 32 0 0 1 32 32v103.04a32 32 0 0 1-32 32zM704 1016.96h-8.96a230.4 230.4 0 0 1-85.76-47.36 31.36 31.36 0 0 1-10.88-24.96 30.08 30.08 0 0 1 12.16-24.32 26.24 26.24 0 0 0 10.88-19.84 24.32 24.32 0 0 0-37.12-22.4 32 32 0 0 1-27.52 0 32.64 32.64 0 0 1-17.28-20.48 211.2 211.2 0 0 1-8.96-60.16 259.84 259.84 0 0 1 7.04-55.68 33.28 33.28 0 0 1 41.6-22.4 25.6 25.6 0 0 0 34.56-23.68 26.88 26.88 0 0 0-8.96-18.56 30.08 30.08 0 0 1-10.88-23.68 33.28 33.28 0 0 1 10.24-23.68A232.96 232.96 0 0 1 696.32 576a31.36 31.36 0 0 1 39.04 21.12 24.96 24.96 0 0 0 47.36 0 32.64 32.64 0 0 1 39.68-21.12 234.88 234.88 0 0 1 91.52 51.2 33.28 33.28 0 0 1 10.24 23.68 34.56 34.56 0 0 1-10.88 23.68 26.88 26.88 0 0 0-8.96 18.56 25.6 25.6 0 0 0 25.6 26.24 19.2 19.2 0 0 0 8.32 0 35.2 35.2 0 0 1 25.6 0 32 32 0 0 1 16 20.48 227.2 227.2 0 0 1 7.68 55.68 237.44 237.44 0 0 1-7.68 56.96 33.28 33.28 0 0 1-16 19.84 32.64 32.64 0 0 1-25.6 0 24.96 24.96 0 0 0-33.92 23.04 24.32 24.32 0 0 0 8.32 18.56 31.36 31.36 0 0 1 10.24 23.68 33.28 33.28 0 0 1-10.24 23.68 225.28 225.28 0 0 1-87.68 49.92 31.36 31.36 0 0 1-26.24-3.84 30.72 30.72 0 0 1-14.72-21.76 24.96 24.96 0 0 0-24.32-21.76 25.6 25.6 0 0 0-24.32 21.76 32.64 32.64 0 0 1-14.08 22.4 33.92 33.92 0 0 1-17.28 8.96z m-28.16-78.72l10.24 5.12a87.68 87.68 0 0 1 146.56 0 109.44 109.44 0 0 0 14.72-8.32 90.88 90.88 0 0 1-7.04-35.2 89.6 89.6 0 0 1 82.56-88.96 94.72 94.72 0 0 0 0-13.44 81.92 81.92 0 0 0 0-12.16 90.24 90.24 0 0 1-82.56-89.6 88.32 88.32 0 0 1 7.68-35.84 196.48 196.48 0 0 0-19.84-10.88 93.44 93.44 0 0 1-138.24 0l-20.48 10.88a88.96 88.96 0 0 1 8.32 35.84 90.24 90.24 0 0 1-82.56 89.6 81.92 81.92 0 0 0 0 12.16 85.76 85.76 0 0 0 0 12.8 90.88 90.88 0 0 1 90.24 89.6 81.92 81.92 0 0 1-9.6 38.4z" fill="#323333" p-id="12507"></path><path d="M759.04 879.36a82.56 82.56 0 1 1 82.56-82.56 82.56 82.56 0 0 1-82.56 82.56z m0-101.12a18.56 18.56 0 1 0 18.56 18.56 18.56 18.56 0 0 0-18.56-18.56z" fill="#323333" p-id="12508"></path></svg>