<?xml version="1.0" standalone="no"?><!DOCTYPE svg PUBLIC "-//W3C//DTD SVG 1.1//EN" "http://www.w3.org/Graphics/SVG/1.1/DTD/svg11.dtd"><svg t="1575439675535" class="icon" viewBox="0 0 1024 1024" version="1.1" xmlns="http://www.w3.org/2000/svg" p-id="1835" xmlns:xlink="http://www.w3.org/1999/xlink" width="200" height="200"><defs><style type="text/css"></style></defs><path d="M1021.952 523.264V778.24h-58.368c-8.704-23.552-18.944-43.52-31.232-59.392-44.544-58.88-121.856-74.24-189.44-88.576-27.136-5.632-52.736-10.752-73.216-18.432-8.704-3.072-14.848-6.144-18.944-8.704 21.504-23.552 39.936-52.224 53.248-84.48 16.896-39.936 25.6-82.944 25.6-124.928 0-64.512-4.096-137.728-33.28-197.12-12.8-25.6-33.792-54.784-66.56-75.264 15.872-56.32 51.712-94.208 127.488-94.208 119.296 0 137.728 96.768 137.728 213.504 0 60.928-27.136 123.904-67.584 159.232-4.096 3.584-6.144 8.704-6.144 13.824 0 14.336 0.512 33.28 5.632 40.448 33.792 45.568 125.44 46.592 195.072 69.12M89.088 720.384c43.52-61.952 122.88-77.824 193.024-92.16 27.648-5.632 53.248-10.752 73.728-17.92 8.192-3.072 14.336-5.632 18.432-8.192-21.504-23.552-39.424-51.712-52.736-83.456-16.896-39.424-25.6-81.92-26.112-122.88-0.512-54.784 2.56-96.256 9.728-131.072 10.24-50.688 29.184-89.088 57.856-118.272 9.728-9.728 20.48-18.432 31.744-25.088C378.368 64 343.04 26.624 268.8 26.624c-122.88 0-140.288 97.792-139.264 215.04 0.512 59.904 27.648 122.368 67.584 157.696 4.096 3.584 6.144 8.704 6.144 14.336 0 14.336-1.024 33.28-6.144 39.936-32.768 45.056-125.44 46.08-195.584 67.584v256.512h58.368c8.704-22.528 18.432-41.472 29.184-57.344m844.8 254.464c0.512 12.288-9.216 22.528-21.504 22.528H112.64c-12.288 0-22.016-10.24-21.504-22.528 3.072-49.152 13.312-163.328 50.176-216.576 56.32-79.872 241.152-52.224 292.864-123.904 6.144-7.68 6.656-28.672 6.656-45.056 0-6.144-2.56-11.776-7.168-16.384-44.544-39.936-74.24-109.568-75.264-176.64-1.536-131.584 17.92-241.152 154.624-241.152 132.608 0 152.576 108.032 152.576 239.104 0 68.608-30.208 138.752-74.752 178.688-4.096 4.096-7.168 9.728-7.168 15.872-0.512 16.384 0.512 37.888 6.144 45.568 52.736 71.168 231.936 45.568 291.328 123.904 39.936 51.712 49.664 167.424 52.736 216.576z" p-id="1836"></path></svg>